<?xml version="1.0" encoding="UTF-8"?>
<svg width="160px" height="46px" viewBox="0 0 160 46" version="1.1" xmlns="http://www.w3.org/2000/svg" xmlns:xlink="http://www.w3.org/1999/xlink">
    <!-- Generator: Sketch 50 (54983) - http://www.bohemiancoding.com/sketch -->
    <title>logo_anti</title>
    <desc>Created with Sketch.</desc>
    <defs>
        <circle id="path-1" cx="22.8" cy="22.8" r="22.8"></circle>
    </defs>
    <g id="Page-1" stroke="none" stroke-width="1" fill="none" fill-rule="evenodd">
        <g id="Artboard" transform="translate(-856.000000, -223.000000)">
            <g id="login" transform="translate(828.000000, 209.000000)">
                <g id="logo_anti" transform="translate(28.000000, 14.000000)">
                    <g id="Group-4" transform="translate(22.800000, 22.800000) scale(-1, 1) translate(-22.800000, -22.800000) ">
                        <g id="Shape">
                            <mask id="mask-2" fill="white">
                                <use xlink:href="#path-1"></use>
                            </mask>
                            <use id="Mask" fill="#06B1FF" xlink:href="#path-1"></use>
                            <path d="M43.5687574,28.0182782 C33.1349669,28.0182782 27.9180717,28.0182782 27.9180717,28.0182782 C27.9180717,28.0182782 27.9180717,29.1288521 27.9180717,31.35 L21.9528282,25.7236328 L27.9180717,20.8537577 C28.0115505,22.0859036 28.1099825,22.965975 28.2133677,23.4939721 L37.6628383,23.4939721 L37.6628383,22.5891109 C35.5957666,16.2550824 28.2133677,14.0550938 28.2133677,14.0550938 C25.8229708,8.92754688 20.2403769,8.92754688 20.2403769,8.92754688 C14.0391619,8.92754688 12.533351,16.1109551 12.533351,16.1109551 C8.38792861,16.9577963 2.91535416,18.9663546 0.840146854,21.5956039 C-1.51941937,24.5851307 -1.6424493,26.11991 -1.6424493,26.11991 C-3.86996802,15.1706714 9.08407171,12.3806124 9.08407171,12.3806124 C12.533351,3.8 20.5356729,3.8 20.5356729,3.8 C28.5086636,3.8 32.0522151,10.7372693 32.0522151,10.7372693 C39.7299099,11.6421305 42.3875735,18.969666 43.2734614,22.2874905 C43.2734614,22.2874905 43.2734614,22.8907313 43.5687574,23.4939721 C43.5687574,23.7955925 43.8640533,25.9069353 43.5687574,28.0182782 Z" fill="#FFFFFF" fill-rule="nonzero" mask="url(#mask-2)"></path>
                            <path d="M29.45,37.05 C28.400659,37.05 27.55,36.199341 27.55,35.15 C27.55,34.100659 28.400659,33.25 29.45,33.25 L48.45,33.25 L48.45,37.05 L29.45,37.05 Z" id="Rectangle-3" fill="#FFFFFF" mask="url(#mask-2)"></path>
                        </g>
                    </g>
                    <path d="M69.2625,31.6054688 L66.890625,31.6054688 L57.2484375,17.7609375 L57.2484375,31.6054688 L54.7992188,31.6054688 L54.7992188,14.30625 L57.6351563,14.30625 L66.8390625,27.50625 L66.8390625,14.30625 L69.2625,14.30625 L69.2625,31.6054688 Z M87.0292187,26.165625 C87.0292187,29.7922056 85.0440823,31.6054688 81.0737499,31.6054688 L72.2049999,31.6054688 L72.2049999,29.1820313 L81.0737499,29.1820313 C82.2425058,29.1820313 83.0760912,28.9929706 83.5745312,28.6148437 C84.244847,28.1679665 84.5799999,27.3515684 84.5799999,26.165625 C84.5799999,24.5328043 83.5057919,23.7164062 81.3573437,23.7164062 L77.5932812,23.7164062 C76.0120233,23.7164062 74.6800054,23.338285 73.5971874,22.5820312 C72.3596813,21.722652 71.7409374,20.5109453 71.7409374,18.946875 C71.7409374,17.245304 72.4284306,15.990629 73.8034374,15.1828125 C74.7831298,14.5984346 75.9432745,14.30625 77.2839062,14.30625 L86.3331249,14.30625 L86.3331249,16.7554687 L77.2839062,16.7554687 C75.2213959,16.7554687 74.1901562,17.4859302 74.1901562,18.946875 C74.1901562,19.6343784 74.4651534,20.1757793 75.0151562,20.5710938 C75.6339093,21.0351586 76.4932757,21.2671875 77.5932812,21.2671875 L81.3573437,21.2671875 C82.8011009,21.2671875 84.0385885,21.6023404 85.0698437,22.2726563 C86.3761002,23.1320355 87.0292187,24.4296788 87.0292187,26.165625 Z M110.47125,31.63125 L104.773594,31.63125 C103.278274,31.63125 101.972037,31.1328175 100.854844,30.1359375 C99.634525,28.9843692 99.0243748,27.4461034 99.0243748,25.5210937 C99.0243748,23.561709 99.634525,22.0062558 100.854844,20.8546875 C101.954849,19.8406199 103.261086,19.3335937 104.773594,19.3335937 L110.47125,19.3335937 L110.47125,21.7570313 L104.799375,21.7570313 C103.922808,21.7570312 103.166566,22.0492158 102.530625,22.6335938 C101.808746,23.3210972 101.447812,24.2835876 101.447812,25.5210937 C101.447812,26.7242248 101.81734,27.6609341 102.556406,28.33125 C103.175159,28.9156279 103.922808,29.2078125 104.799375,29.2078125 L110.47125,29.2078125 L110.47125,31.63125 Z M115.141094,31.63125 L112.691875,31.63125 L112.691875,14.30625 L115.141094,14.30625 L115.141094,31.63125 Z M130.742187,25.4953125 C130.742187,27.3343842 130.089069,28.9070247 128.782812,30.2132813 C127.476556,31.5195378 125.903915,32.1726563 124.064843,32.1726563 C122.208584,32.1726563 120.62735,31.5195378 119.321093,30.2132813 C118.032025,28.9070247 117.3875,27.3343842 117.3875,25.4953125 C117.3875,23.6390532 118.032025,22.057819 119.321093,20.7515625 C120.62735,19.445306 122.208584,18.7921875 124.064843,18.7921875 C125.903915,18.7921875 127.476556,19.445306 128.782812,20.7515625 C130.089069,22.057819 130.742187,23.6390532 130.742187,25.4953125 Z M128.344531,25.4953125 C128.344531,24.3093691 127.914848,23.2953167 127.055468,22.453125 C126.230464,21.6281209 125.233599,21.215625 124.064843,21.215625 C122.8789,21.215625 121.873441,21.6281209 121.048437,22.453125 C120.206246,23.2953167 119.785156,24.3093691 119.785156,25.4953125 C119.785156,26.6640683 120.206246,27.6609334 121.048437,28.4859375 C121.873441,29.3109416 122.8789,29.7234375 124.064843,29.7234375 C125.233599,29.7234375 126.230464,29.3109416 127.055468,28.4859375 C127.914848,27.6609334 128.344531,26.6640683 128.344531,25.4953125 Z M144.46125,31.63125 L139.09875,31.63125 C134.990917,31.63125 132.937031,29.6547073 132.937031,25.7015625 L132.937031,19.3335937 L135.360468,19.3335937 L135.360468,25.7015625 C135.360468,27.1281321 135.729996,28.0992162 136.469062,28.6148437 C137.019065,29.0101582 137.895619,29.2078125 139.09875,29.2078125 L142.037812,29.2078125 L142.037812,19.3335937 L144.46125,19.3335937 L144.46125,31.63125 Z M158.644375,31.6054688 L152.431093,31.6054688 C150.935773,31.6054688 149.63813,31.1070362 148.538125,30.1101563 C147.300618,28.958588 146.681875,27.4203221 146.681875,25.4953125 C146.681875,23.5187401 147.300618,21.9632869 148.538125,20.8289062 C149.620943,19.8320263 150.918586,19.3335937 152.431093,19.3335937 L156.220937,19.3335937 L156.220937,14.30625 L158.644375,14.30625 L158.644375,31.6054688 Z M156.220937,29.1820313 L156.220937,21.7570313 L152.456875,21.7570313 C151.56312,21.7570312 150.815471,22.0406222 150.213906,22.6078125 C149.492027,23.2953159 149.131093,24.2578063 149.131093,25.4953125 C149.131093,26.6984435 149.492027,27.6351529 150.213906,28.3054688 C150.832659,28.8898467 151.580308,29.1820313 152.456875,29.1820313 L156.220937,29.1820313 Z" id="NS-cloud" stroke="#333333" stroke-width="0.96" fill="#333333"></path>
                </g>
            </g>
        </g>
    </g>
</svg>