<?xml version="1.0" encoding="UTF-8"?>
<svg width="178px" height="48px" viewBox="0 0 178 48" version="1.1" xmlns="http://www.w3.org/2000/svg" xmlns:xlink="http://www.w3.org/1999/xlink">
    <!-- Generator: Sketch 50 (54983) - http://www.bohemiancoding.com/sketch -->
    <title>logo_ns</title>
    <desc>Created with Sketch.</desc>
    <defs>
        <linearGradient x1="80.9169657%" y1="0%" x2="23.4453203%" y2="50%" id="linearGradient-1">
            <stop stop-color="#EAF4FF" offset="0%"></stop>
            <stop stop-color="#F3F8FC" offset="100%"></stop>
        </linearGradient>
        <circle id="path-2" cx="24" cy="24" r="24"></circle>
        <linearGradient x1="80.9169657%" y1="0%" x2="50%" y2="65.8806826%" id="linearGradient-4">
            <stop stop-color="#55A4F5" offset="0%"></stop>
            <stop stop-color="#50A1F3" offset="0%"></stop>
            <stop stop-color="#55C6FA" offset="0.275469653%"></stop>
            <stop stop-color="#06B1FF" offset="100%"></stop>
        </linearGradient>
    </defs>
    <g id="Page-1" stroke="none" stroke-width="1" fill="none" fill-rule="evenodd">
        <g id="Artboard" transform="translate(-192.000000, -458.000000)">
            <g id="logo_ns" transform="translate(279.000000, 480.000000) scale(-1, 1) translate(-279.000000, -480.000000) translate(179.000000, 450.000000)">
                <rect id="Rectangle-4" x="0" y="0" width="200" height="60"></rect>
                <g id="Group-4" transform="translate(139.000000, 8.000000)">
                    <g id="Shape">
                        <mask id="mask-3" fill="white">
                            <use xlink:href="#path-2"></use>
                        </mask>
                        <use id="Mask" fill="url(#linearGradient-1)" xlink:href="#path-2"></use>
                        <path d="M45.8618498,29.4929244 C34.8789126,29.4929244 29.3874439,29.4929244 29.3874439,29.4929244 C29.3874439,29.4929244 29.3874439,30.6619496 29.3874439,33 L23.1082402,27.0775082 L29.3874439,21.9513239 C29.4858427,23.2483195 29.5894553,24.1747105 29.6982818,24.7304969 L39.6450929,24.7304969 L39.6450929,23.7780114 C37.469228,17.110613 29.6982818,14.7948355 29.6982818,14.7948355 C27.1820746,9.39741777 21.3056599,9.39741777 21.3056599,9.39741777 C14.7780651,9.39741777 13.1930011,16.9589001 13.1930011,16.9589001 C8.82939853,17.8503119 3.06879386,19.9645838 0.884365109,22.7322146 C-1.59938881,25.8790849 -1.728894,27.4946421 -1.728894,27.4946421 C-4.07365055,15.9691278 9.56218075,13.0322236 9.56218075,13.0322236 C13.1930011,4 21.6164978,4 21.6164978,4 C30.0091196,4 33.7391738,11.3023887 33.7391738,11.3023887 C41.8209578,12.2548742 44.6184985,19.9680695 45.551012,23.4605163 C45.551012,23.4605163 45.551012,24.0955066 45.8618498,24.7304969 C45.8618498,25.0479921 46.1726877,27.2704582 45.8618498,29.4929244 Z" fill="url(#linearGradient-4)" fill-rule="nonzero" mask="url(#mask-3)"></path>
                        <path d="M31,39 C29.8954305,39 29,38.1045695 29,37 C29,35.8954305 29.8954305,35 31,35 L51,35 L51,39 L31,39 Z" id="Rectangle-3" fill="#06B1FF" mask="url(#mask-3)"></path>
                    </g>
                </g>
                <path d="M25.1875,43.0664062 L22.671875,43.0664062 L12.4453125,28.3828125 L12.4453125,43.0664062 L9.84765625,43.0664062 L9.84765625,24.71875 L12.8554688,24.71875 L22.6171875,38.71875 L22.6171875,24.71875 L25.1875,24.71875 L25.1875,43.0664062 Z M44.0309896,37.296875 C44.0309896,41.1432484 41.9255419,43.0664062 37.7145833,43.0664062 L28.3083333,43.0664062 L28.3083333,40.4960938 L37.7145833,40.4960938 C38.9541728,40.4960938 39.8382786,40.2955749 40.3669271,39.8945312 C41.0778681,39.4205705 41.4333333,38.5546938 41.4333333,37.296875 C41.4333333,35.5650955 40.2940218,34.6992188 38.0153646,34.6992188 L34.0231771,34.6992188 C32.3460853,34.6992188 30.933339,34.2981811 29.7848958,33.4960938 C28.4723892,32.5846309 27.8161458,31.2994875 27.8161458,29.640625 C27.8161458,27.8359285 28.5453052,26.5052126 30.0036458,25.6484375 C31.0427135,25.0286427 32.2731699,24.71875 33.6950521,24.71875 L43.2927083,24.71875 L43.2927083,27.3164062 L33.6950521,27.3164062 C31.5075411,27.3164062 30.4138021,28.0911381 30.4138021,29.640625 C30.4138021,30.3697953 30.7054658,30.9440083 31.2888021,31.3632812 C31.9450553,31.8554712 32.8565046,32.1015625 34.0231771,32.1015625 L38.0153646,32.1015625 C39.5466222,32.1015625 40.8591091,32.4570277 41.9528646,33.1679688 C43.3382881,34.0794316 44.0309896,35.45572 44.0309896,37.296875 Z M68.8937499,43.09375 L62.8507812,43.09375 C61.2648357,43.09375 59.8794329,42.5651095 58.6945312,41.5078125 C57.4002538,40.2864522 56.7531249,38.6549581 56.7531249,36.6132812 C56.7531249,34.5351459 57.4002538,32.8854228 58.6945312,31.6640625 C59.8612037,30.5885363 61.2466065,30.0507812 62.8507812,30.0507812 L68.8937499,30.0507812 L68.8937499,32.6210938 L62.8781249,32.6210938 C61.9484328,32.6210938 61.1463574,32.9309865 60.4718749,33.5507812 C59.7062461,34.2799516 59.3234374,35.3007747 59.3234374,36.6132812 C59.3234374,37.8893293 59.7153606,38.8828089 60.4992187,39.59375 C61.1554719,40.2135448 61.9484328,40.5234375 62.8781249,40.5234375 L68.8937499,40.5234375 L68.8937499,43.09375 Z M73.8466145,43.09375 L71.2489582,43.09375 L71.2489582,24.71875 L73.8466145,24.71875 L73.8466145,43.09375 Z M90.393229,36.5859375 C90.393229,38.5364681 89.7005276,40.2044202 88.315104,41.5898438 C86.9296804,42.9752673 85.2617283,43.6679688 83.3111978,43.6679688 C81.3424379,43.6679688 79.6653713,42.9752673 78.2799478,41.5898438 C76.9127534,40.2044202 76.2291665,38.5364681 76.2291665,36.5859375 C76.2291665,34.6171777 76.9127534,32.9401111 78.2799478,31.5546875 C79.6653713,30.1692639 81.3424379,29.4765625 83.3111978,29.4765625 C85.2617283,29.4765625 86.9296804,30.1692639 88.315104,31.5546875 C89.7005276,32.9401111 90.393229,34.6171777 90.393229,36.5859375 Z M87.8502603,36.5859375 C87.8502603,35.3281187 87.3945356,34.2526086 86.4830728,33.359375 C85.6080684,32.4843706 84.5507873,32.046875 83.3111978,32.046875 C82.053379,32.046875 80.9869834,32.4843706 80.111979,33.359375 C79.2187454,34.2526086 78.7721353,35.3281187 78.7721353,36.5859375 C78.7721353,37.825527 79.2187454,38.8828081 80.111979,39.7578125 C80.9869834,40.6328169 82.053379,41.0703125 83.3111978,41.0703125 C84.5507873,41.0703125 85.6080684,40.6328169 86.4830728,39.7578125 C87.3945356,38.8828081 87.8502603,37.825527 87.8502603,36.5859375 Z M104.94375,43.09375 L99.2562498,43.09375 C94.8994572,43.09375 92.7210936,40.9974168 92.7210936,36.8046875 L92.7210936,30.0507812 L95.2914061,30.0507812 L95.2914061,36.8046875 C95.2914061,38.3177159 95.6833292,39.3476535 96.4671873,39.8945312 C97.0505236,40.3138042 97.9802018,40.5234375 99.2562498,40.5234375 L102.373437,40.5234375 L102.373437,30.0507812 L104.94375,30.0507812 L104.94375,43.09375 Z M119.986458,43.0664062 L113.396614,43.0664062 C111.810669,43.0664062 110.434381,42.5377657 109.267708,41.4804688 C107.955202,40.2591085 107.298958,38.6276144 107.298958,36.5859375 C107.298958,34.4895729 107.955202,32.8398498 109.267708,31.6367188 C110.416151,30.5794218 111.79244,30.0507812 113.396614,30.0507812 L117.416146,30.0507812 L117.416146,24.71875 L119.986458,24.71875 L119.986458,43.0664062 Z M117.416146,40.4960938 L117.416146,32.6210938 L113.423958,32.6210938 C112.476037,32.6210938 111.683076,32.921872 111.045052,33.5234375 C110.279423,34.2526078 109.896614,35.2734309 109.896614,36.5859375 C109.896614,37.8619855 110.279423,38.8554652 111.045052,39.5664062 C111.701305,40.186201 112.494266,40.4960938 113.423958,40.4960938 L117.416146,40.4960938 Z" id="NS-cloud" stroke="#FFFFFF" fill="#FFFFFF" transform="translate(64.917057, 34.193359) scale(-1, 1) translate(-64.917057, -34.193359) "></path>
            </g>
        </g>
    </g>
</svg>